<svg xmlns="http://www.w3.org/2000/svg" xmlns:xlink="http://www.w3.org/1999/xlink" version="1.1" x="0px" y="0px" viewBox="0 0 100 125" style="enable-background:new 0 0 100 100;" xml:space="preserve"><path d="M13.921,56.789c-0.918,2.449-0.588,5.067,1.102,6.757c1.079,1.079,2.536,1.604,4.086,1.604c0.898,0,1.826-0.186,2.732-0.534  c1.095,2.436,3.176,3.965,5.518,3.965c2.353,0,4.439-1.542,5.53-3.994c0.885,0.331,1.79,0.51,2.667,0.51  c1.55,0,3.008-0.525,4.086-1.604c1.212-1.212,1.721-2.902,1.576-4.664c3.915,4.914,5.113,9.899,5.456,12.002  c-0.563,0.029-1.073,0.246-1.476,0.591l-6.251-2.918c-0.092-0.043-0.189-0.071-0.29-0.085c-0.577-0.076-1.134,0.164-1.487,0.645  c-0.353,0.48-0.433,1.106-0.218,1.661l1.158,4.759c0.007,0.028,0.015,0.055,0.024,0.082c-0.009,0.026-0.017,0.053-0.023,0.081  l-1.173,4.792c-0.211,0.546-0.137,1.166,0.204,1.644c0.309,0.432,0.781,0.677,1.289,0.677c0.057,0,0.114-0.003,0.171-0.009  c0.102-0.011,0.202-0.038,0.295-0.079l6.351-2.79c0.1,0.081,0.205,0.155,0.318,0.22l-4.426,8.436  c-0.163,0.31-0.151,0.682,0.03,0.982C41.352,89.817,41.677,90,42.027,90h15.566c0.354,0,0.682-0.188,0.862-0.493  s0.185-0.683,0.013-0.992l-4.756-8.575c0.127-0.095,0.244-0.202,0.35-0.319l6.267,3.052c0.095,0.046,0.195,0.077,0.299,0.091  c0.072,0.01,0.144,0.015,0.214,0.015c0.481,0,0.933-0.228,1.237-0.633c0.36-0.479,0.447-1.112,0.237-1.675l-1.111-4.761  c-0.007-0.031-0.016-0.062-0.026-0.091c0.01-0.029,0.019-0.06,0.026-0.09l1.125-4.794c0.207-0.555,0.125-1.181-0.223-1.658  c-0.339-0.464-0.873-0.701-1.424-0.642c-0.105,0.012-0.208,0.041-0.305,0.084l-6.469,2.965c-0.326-0.302-0.729-0.523-1.181-0.616  c0.333-2.142,1.589-7.608,6.079-12.844c-0.415,2.062,0.048,4.114,1.456,5.522c1.079,1.079,2.536,1.605,4.086,1.605  c0.898,0,1.826-0.186,2.731-0.534c1.095,2.436,3.176,3.965,5.519,3.965c2.353,0,4.438-1.541,5.53-3.993  c0.885,0.332,1.791,0.51,2.668,0.51c1.55,0,3.007-0.526,4.086-1.605c1.705-1.705,2.027-4.354,1.079-6.821  c2.431-1.096,3.957-3.175,3.957-5.515c0-2.351-1.538-4.435-3.987-5.528c0.918-2.449,0.588-5.066-1.102-6.757  c-1.705-1.705-4.354-2.027-6.821-1.079c-1.096-2.431-3.174-3.956-5.515-3.956c-2.351,0-4.436,1.539-5.528,3.987  c-0.774-0.293-1.572-0.47-2.361-0.506c-0.032-0.911-0.227-1.845-0.587-2.757c2.655-1.168,4.328-3.413,4.328-5.946  c0-2.542-1.684-4.792-4.355-5.956c1.024-2.654,0.682-5.501-1.149-7.331c-1.847-1.847-4.727-2.177-7.4-1.12  c-1.168-2.655-3.413-4.327-5.945-4.327c-2.542,0-4.792,1.685-5.956,4.355c-2.654-1.024-5.501-0.681-7.332,1.149  c-1.846,1.846-2.176,4.726-1.119,7.4c-2.655,1.168-4.327,3.413-4.327,5.945c0,2.543,1.684,4.793,4.355,5.957  c-0.337,0.874-0.519,1.768-0.555,2.641c-0.607,0.081-1.209,0.236-1.794,0.463c-1.097-2.429-3.175-3.953-5.514-3.953  c-2.351,0-4.435,1.538-5.528,3.986c-2.45-0.918-5.068-0.587-6.757,1.102c-1.705,1.705-2.027,4.353-1.079,6.821  c-2.431,1.096-3.957,3.175-3.957,5.515C9.935,53.613,11.474,55.697,13.921,56.789z M16.438,62.132  c-1.695-1.695-1.258-4.891,0.974-7.124c1.25-1.25,3.905-2.063,6.093-2.444c0.415,1.16,1.338,2.068,2.506,2.466  c-0.378,2.203-1.191,4.869-2.45,6.128C21.329,63.39,18.134,63.827,16.438,62.132z M34.765,39.327  c0.258,1.012,0.75,1.939,1.503,2.691c0.803,0.803,1.808,1.301,2.899,1.542c-0.164,1.38-0.859,2.747-1.963,3.851  c-1.252,1.252-3.9,2.064-6.094,2.444c-0.415-1.161-1.338-2.068-2.507-2.466c0.379-2.206,1.192-4.869,2.451-6.128  C32.121,40.194,33.433,39.52,34.765,39.327z M37.061,17.535l8.849,8.849c-0.19,0.302-0.335,0.632-0.446,0.978  c-2.425-0.408-5.383-1.301-6.781-2.698C36.515,22.495,35.894,19.501,37.061,17.535z M49.555,26.356c1.277,0,2.317,1.04,2.317,2.317  s-1.04,2.317-2.317,2.317s-2.317-1.04-2.317-2.317S48.278,26.356,49.555,26.356z M62.07,17.63c1.05,1.965,0.414,4.862-1.7,6.977  c-1.389,1.389-4.332,2.282-6.743,2.692c-0.1-0.295-0.227-0.576-0.385-0.839L62.07,17.63z M68.75,41.313  c1.251,1.251,2.063,3.901,2.444,6.093c-0.235,0.084-0.457,0.188-0.669,0.312l-2.098-2.098c-0.391-0.391-1.023-0.391-1.414,0  c-0.391,0.39-0.391,1.023,0,1.414l2.082,2.083c-0.152,0.249-0.272,0.516-0.368,0.797c-2.209-0.379-4.867-1.191-6.127-2.451  c-1.111-1.111-1.811-2.488-1.969-3.877c-0.01-0.086-0.047-0.16-0.077-0.237c0.875-0.278,1.682-0.724,2.346-1.389  c0.74-0.74,1.228-1.649,1.49-2.641C65.902,39.346,67.5,40.064,68.75,41.313z M74.6,51.209c0,1.132-0.92,2.053-2.052,2.053  s-2.053-0.921-2.053-2.053s0.921-2.052,2.053-2.052S74.6,50.077,74.6,51.209z M52.711,77.964c0,0.264-0.214,0.478-0.478,0.478  h-5.431c-0.264,0-0.478-0.214-0.478-0.478v-4.667c0-0.066,0.013-0.129,0.038-0.186c0.006-0.012,0.018-0.02,0.024-0.032  c0.001-0.002,0-0.003,0.001-0.005c0.081-0.15,0.234-0.255,0.415-0.255h5.431c0.264,0,0.478,0.215,0.478,0.479V77.964z   M47.266,32.319c0.302,0.19,0.632,0.335,0.978,0.446c-0.409,2.429-1.302,5.382-2.699,6.78c-2.168,2.168-5.162,2.789-7.128,1.622  L47.266,32.319z M51.77,32.359l8.829,8.829c-1.965,1.05-4.862,0.414-6.977-1.7c-1.387-1.387-2.281-4.337-2.691-6.743  C51.226,32.645,51.507,32.518,51.77,32.359z M49.612,45.465c-1.757,0-3.337-1.264-4.17-3.261c0.531-0.355,1.042-0.768,1.518-1.244  c1.289-1.289,2.113-3.29,2.633-5.099c0.52,1.788,1.341,3.768,2.614,5.041c0.495,0.495,1.028,0.919,1.582,1.284  C52.958,44.193,51.375,45.465,49.612,45.465z M38.617,48.825c0.439-0.439,0.822-0.916,1.156-1.415  c1.782,0.759,2.906,2.175,2.906,3.747c0,1.567-1.119,2.981-2.893,3.742c-0.322-0.474-0.69-0.932-1.116-1.357  c-1.134-1.134-2.861-1.881-4.463-2.366C35.793,50.689,37.496,49.945,38.617,48.825z M44.68,51.157c0-2.35-1.537-4.433-3.983-5.526  c0.23-0.61,0.39-1.237,0.462-1.87c0.002-0.018-0.005-0.033-0.004-0.051c0.833-0.056,1.68-0.249,2.51-0.577  c1.027,2.338,2.89,3.907,5.051,4.25v23.435h-0.01c-0.332-2.348-1.71-8.667-7.098-14.618C43.515,55.034,44.68,53.197,44.68,51.157z   M50.715,47.352c2.083-0.409,3.865-1.97,4.857-4.251c0.977,0.377,1.98,0.579,2.949,0.579c0.046,0,0.089-0.011,0.135-0.012  c-0.002,0.049-0.018,0.095-0.012,0.145c0.075,0.655,0.241,1.305,0.485,1.935c-2.429,1.097-3.953,3.175-3.953,5.514  c0,1.907,1.019,3.634,2.707,4.805c-5.46,5.99-6.839,12.37-7.167,14.71V47.352z M61.238,53.594c-0.443,0.443-0.824,0.92-1.155,1.416  c-1.783-0.759-2.908-2.175-2.908-3.748c0-1.567,1.118-2.981,2.892-3.741c0.326,0.478,0.696,0.935,1.118,1.357  c1.134,1.134,2.86,1.882,4.464,2.367C64.065,51.73,62.358,52.474,61.238,53.594z M62.05,39.811l-8.849-8.849  c0.19-0.302,0.335-0.632,0.446-0.978c2.422,0.408,5.384,1.302,6.781,2.698C62.596,34.851,63.216,37.846,62.05,39.811z   M45.869,30.888l-8.829,8.829c-1.051-1.966-0.414-4.863,1.7-6.977c1.389-1.389,4.334-2.282,6.743-2.692  C45.584,30.344,45.71,30.625,45.869,30.888z M27.307,49.157c1.132,0,2.052,0.92,2.052,2.052s-0.92,2.053-2.052,2.053  s-2.052-0.921-2.052-2.053S26.175,49.157,27.307,49.157z M27.36,66.582c-1.566,0-2.978-1.117-3.74-2.888  c0.474-0.322,0.929-0.696,1.355-1.122c1.134-1.134,1.881-2.863,2.366-4.465c0.485,1.586,1.229,3.291,2.35,4.412  c0.443,0.443,0.919,0.828,1.414,1.158C30.347,65.458,28.931,66.582,27.36,66.582z M38.23,62.079  c-1.696,1.694-4.892,1.257-7.124-0.974c-1.251-1.251-2.063-3.9-2.444-6.093c1.161-0.415,2.068-1.338,2.466-2.507  c2.205,0.378,4.869,1.191,6.128,2.45C39.488,57.188,39.925,60.384,38.23,62.079z M40.037,74.935l-1.02-4.193l5.314,2.481  c-0.001,0.025-0.007,0.048-0.007,0.073v4.667c0,0.045,0.011,0.087,0.013,0.132l-5.34,2.346l1.04-4.246  C40.191,75.793,40.191,75.337,40.037,74.935z M47.561,80.604c0.027-0.052,0.03-0.108,0.047-0.163h1.202V88h-5.129L47.561,80.604z   M50.81,88v-7.558h0.937c0.02,0.061,0.026,0.125,0.058,0.183L55.895,88H50.81z M59.276,76.238l0.973,4.17l-5.538-2.696v-4.396  l5.558-2.547l-0.992,4.227C59.127,75.397,59.127,75.838,59.276,76.238z M61.678,62.132c-1.695-1.696-1.258-4.891,0.974-7.124  c1.25-1.25,3.904-2.063,6.093-2.444c0.084,0.234,0.188,0.456,0.312,0.669l-2.098,2.098c-0.391,0.39-0.391,1.023,0,1.414  c0.195,0.195,0.451,0.293,0.707,0.293s0.512-0.098,0.707-0.293l2.083-2.082c0.249,0.151,0.516,0.272,0.796,0.368  c-0.378,2.203-1.192,4.869-2.45,6.128C66.569,63.391,63.375,63.827,61.678,62.132z M72.601,66.582c-1.566,0-2.979-1.116-3.739-2.888  c0.474-0.322,0.929-0.696,1.355-1.122c1.134-1.134,1.881-2.862,2.366-4.464c0.485,1.586,1.229,3.29,2.351,4.411  c0.443,0.443,0.919,0.827,1.414,1.158C75.587,65.458,74.172,66.582,72.601,66.582z M83.471,62.079  c-1.696,1.696-4.892,1.258-7.124-0.974c-1.252-1.252-2.064-3.9-2.444-6.093c0.234-0.084,0.456-0.188,0.669-0.312l2.098,2.098  c0.195,0.195,0.451,0.293,0.707,0.293s0.512-0.098,0.707-0.293c0.391-0.39,0.391-1.023,0-1.414l-2.082-2.083  c0.152-0.249,0.272-0.516,0.368-0.796c2.205,0.378,4.869,1.191,6.128,2.45C84.729,57.188,85.166,60.383,83.471,62.079z   M87.92,51.157c0,1.567-1.119,2.981-2.894,3.742c-0.322-0.474-0.691-0.932-1.117-1.357c-1.134-1.134-2.861-1.881-4.463-2.366  c1.585-0.485,3.289-1.229,4.41-2.35c0.443-0.443,0.824-0.92,1.154-1.416C86.795,48.168,87.92,49.584,87.92,51.157z M83.418,40.287  c1.695,1.696,1.258,4.892-0.975,7.124c-1.252,1.252-3.9,2.064-6.093,2.444c-0.084-0.234-0.188-0.457-0.312-0.669l2.098-2.098  c0.391-0.39,0.391-1.023,0-1.414s-1.023-0.391-1.414,0l-2.083,2.082c-0.249-0.152-0.516-0.272-0.796-0.367  c0.379-2.206,1.192-4.869,2.451-6.128C78.526,39.029,81.722,38.591,83.418,40.287z M72.496,35.837c1.567,0,2.981,1.119,3.741,2.894  c-0.474,0.322-0.931,0.69-1.357,1.116c-1.134,1.134-1.882,2.862-2.367,4.464c-0.485-1.585-1.229-3.291-2.35-4.412  c-0.438-0.438-0.914-0.825-1.414-1.16C69.509,36.96,70.925,35.837,72.496,35.837z M66.347,28.616c0,1.759-1.267,3.339-3.266,4.172  c-0.355-0.531-0.764-1.043-1.24-1.519c-1.288-1.288-3.292-2.112-5.098-2.632c1.79-0.521,3.767-1.341,5.041-2.616  c0.495-0.495,0.917-1.029,1.281-1.583C65.074,25.268,66.347,26.852,66.347,28.616z M60.693,16.179l-8.849,8.849  c-0.302-0.19-0.632-0.335-0.978-0.446c0.408-2.424,1.301-5.384,2.698-6.781C55.732,15.633,58.728,15.012,60.693,16.179z   M49.498,11.881c1.759,0,3.339,1.266,4.171,3.266c-0.531,0.355-1.043,0.764-1.519,1.24c-1.288,1.288-2.113,3.29-2.633,5.097  c-0.521-1.79-1.341-3.766-2.615-5.04c-0.495-0.495-1.029-0.917-1.583-1.281C46.151,13.154,47.734,11.881,49.498,11.881z   M45.489,17.858c1.389,1.389,2.281,4.331,2.692,6.744c-0.296,0.1-0.576,0.227-0.84,0.386l-8.829-8.829  C40.477,15.108,43.375,15.744,45.489,17.858z M32.763,28.73c0-1.758,1.266-3.339,3.266-4.172c0.355,0.531,0.764,1.044,1.24,1.52  c1.288,1.289,3.29,2.113,5.097,2.633c-1.789,0.52-3.766,1.341-5.04,2.615c-0.495,0.495-0.917,1.028-1.281,1.582  C34.036,32.078,32.763,30.494,32.763,28.73z M27.255,35.837c1.567,0,2.981,1.118,3.741,2.892c-0.478,0.326-0.935,0.696-1.357,1.118  c-1.134,1.134-1.881,2.861-2.367,4.464c-0.485-1.585-1.229-3.29-2.35-4.411c-0.443-0.443-0.92-0.824-1.416-1.154  C24.266,36.962,25.682,35.837,27.255,35.837z M16.385,40.339c1.695-1.695,4.89-1.258,7.124,0.974  c1.252,1.252,2.064,3.902,2.444,6.093c-1.161,0.415-2.069,1.338-2.467,2.507c-2.209-0.379-4.867-1.191-6.128-2.451  C15.126,45.23,14.689,42.035,16.385,40.339z M14.828,47.52c0.322,0.474,0.69,0.932,1.116,1.358c1.135,1.134,2.86,1.882,4.464,2.367  c-1.584,0.485-3.291,1.229-4.411,2.349c-0.443,0.443-0.824,0.921-1.154,1.416c-1.783-0.759-2.908-2.175-2.908-3.748  C11.935,49.694,13.054,48.28,14.828,47.52z"/><text x="0" y="115" fill="#000000" font-size="5px" font-weight="bold" font-family="'Helvetica Neue', Helvetica, Arial-Unicode, Arial, Sans-serif">Created by Made</text><text x="0" y="120" fill="#000000" font-size="5px" font-weight="bold" font-family="'Helvetica Neue', Helvetica, Arial-Unicode, Arial, Sans-serif">from the Noun Project</text></svg>